<?xml version="1.0" encoding="UTF-8" standalone="no"?>
<!DOCTYPE svg PUBLIC "-//W3C//DTD SVG 1.1//EN"
 "http://www.w3.org/Graphics/SVG/1.1/DTD/svg11.dtd">
<!-- Generated by graphviz version 2.28.0 (20120430.1708)
 -->
<!-- Title: nit_flow Pages: 1 -->
<svg width="271pt" height="172pt"
 viewBox="0.00 0.00 270.84 172.00" xmlns="http://www.w3.org/2000/svg" xmlns:xlink="http://www.w3.org/1999/xlink">
<g id="graph1" class="graph" transform="scale(1 1) rotate(0) translate(4 168)">
<title>nit_flow</title>
<polygon fill="white" stroke="white" points="-4,5 -4,-168 267.845,-168 267.845,5 -4,5"/>
<!-- original -->
<g id="node1" class="node"><title>original</title>
<ellipse fill="none" stroke="black" cx="72" cy="-139" rx="60.2747" ry="24.7895"/>
<text text-anchor="middle" x="72" y="-133.426" font-family="sans-serif" font-size="19.00">original</text>
</g>
<!-- canonical -->
<g id="node3" class="node"><title>canonical</title>
<ellipse fill="none" stroke="black" cx="72" cy="-25" rx="72.4162" ry="24.7895"/>
<text text-anchor="middle" x="72" y="-19.4262" font-family="sans-serif" font-size="19.00">canonical</text>
</g>
<!-- original&#45;&gt;canonical -->
<g id="edge2" class="edge"><title>original&#45;&gt;canonical</title>
<path fill="none" stroke="black" d="M57.0754,-114.835C54.0001,-108.92 51.2126,-102.413 49.6099,-96 46.5927,-83.9268 46.5927,-80.0732 49.6099,-68 50.4112,-64.7934 51.5088,-61.5634 52.7904,-58.3957"/>
<polygon fill="black" stroke="black" points="56.0394,-59.7091 57.0754,-49.165 49.6902,-56.7616 56.0394,-59.7091"/>
<text text-anchor="middle" x="62.1951" y="-76.4262" font-family="sans-serif" font-size="19.00">nit</text>
</g>
<!-- canonical&#45;&gt;original -->
<g id="edge6" class="edge"><title>canonical&#45;&gt;original</title>
<path fill="none" stroke="black" d="M73.3391,-49.9803C73.6137,-55.8708 73.8611,-62.1617 74,-68 74.296,-80.4409 74.296,-83.5591 74,-96 73.9392,-98.5543 73.8577,-101.195 73.7622,-103.851"/>
<polygon fill="black" stroke="black" points="70.2579,-103.883 73.3391,-114.02 77.2519,-104.174 70.2579,-103.883"/>
<text text-anchor="middle" x="91.5713" y="-76.4262" font-family="sans-serif" font-size="19.00">edit</text>
</g>
<!-- canonical&#45;&gt;canonical -->
<g id="edge4" class="edge"><title>canonical&#45;&gt;canonical</title>
<path fill="none" stroke="black" d="M137.929,-35.161C151.906,-34.1292 162,-30.7422 162,-25 162,-20.7382 156.44,-17.7738 147.859,-16.1067"/>
<polygon fill="black" stroke="black" points="148.292,-12.6336 137.929,-14.839 147.405,-19.5773 148.292,-12.6336"/>
<text text-anchor="middle" x="212.422" y="-19.4262" font-family="sans-serif" font-size="19.00">nit (no&#45;op)</text>
</g>
</g>
</svg>
